<svg width="240" height="115" viewBox="0 0 240 115" fill="none" xmlns="http://www.w3.org/2000/svg">
<g clip-path="url(#clip0_207_10992)">
<path d="M137.186 84.6306C137.543 86.9523 138.024 89.2629 138.236 91.5958C138.739 97.0875 137.745 102.367 135.432 107.357C132.841 112.96 128.361 115.471 122.251 114.857C120.062 114.634 117.906 113.998 115.761 113.451C115.202 113.317 114.733 112.826 114.365 112.592C115.526 110.214 116.733 108.082 117.649 105.827C119.492 101.284 120.106 96.4401 120.631 91.6069C121.771 81.2151 122.329 70.7897 121.871 60.342C121.38 49.2134 120.899 38.0626 118.498 27.1126C118.151 25.5499 117.649 24.0319 117.157 22.5027C116.755 21.2302 116.945 20.8172 118.252 20.8283C122.765 20.873 127.267 20.9623 131.779 21.0293C132.729 21.0404 133.109 21.4088 132.74 22.3687C132.204 23.7416 131.701 25.1146 131.187 26.4875C131.009 26.9675 130.863 27.4698 130.908 28.0837C131.668 27.3805 132.371 26.5991 133.187 25.9741C139.085 21.4534 145.664 20.5493 152.691 22.5473C160.354 24.7127 165.928 29.7022 170.028 36.2766C176.328 46.3783 177.434 57.3059 174.496 68.7247C173.881 71.0911 173.222 73.4686 172.34 75.7457C169.223 83.7265 163.504 89.3187 155.718 92.6338C152.032 94.2077 148.01 94.6876 144.179 92.6338C141.598 91.2497 139.61 89.2406 138.303 86.6063C137.968 85.9366 137.711 85.2334 137.409 84.5525C137.331 84.5748 137.253 84.5972 137.175 84.6195L137.186 84.6306ZM153.395 69.4056C158.444 69.4056 163.158 68.2447 167.536 65.5882C172.15 62.7753 172.597 54.6159 167.927 51.7919C166.486 50.9212 165.001 50.0729 163.437 49.4702C159.46 47.941 155.271 47.5615 151.06 47.941C146.983 48.2982 143.028 49.2246 139.666 51.7584C134.17 55.8995 134.661 63.166 140.627 66.4811C144.592 68.6912 148.915 69.4168 153.395 69.4168V69.4056Z" fill="#DBD4FB"/>
<path d="M154.679 109.957C166.464 98.7619 174.429 85.6911 177.087 69.774C179.712 54.1137 178.216 38.911 170.966 24.2664C176.071 24.3333 180.729 25.416 185.588 26.3313C185.186 27.961 184.806 29.4902 184.382 31.1868C185.409 30.305 186.236 29.4009 187.241 28.7982C188.258 28.1954 189.442 27.8605 190.57 27.4699C193.53 26.4318 196.491 26.8671 199.384 27.7043C210.666 30.9971 218.273 38.3082 221.535 49.5038C224.909 61.0565 221.345 71.0465 212.632 79.0386C208.566 82.7667 203.495 84.854 197.831 85.1219C194.793 85.267 192.525 83.9387 190.782 81.55C190.548 81.2263 190.302 80.9138 189.878 80.3557C189.621 81.8067 189.442 83.0346 189.185 84.2512C188.269 88.7161 187.32 93.1586 184.706 97.0206C179.958 104.042 173.312 108.149 165.068 109.868C161.973 110.516 158.89 110.772 155.763 110.27C155.472 110.225 155.182 110.103 154.657 109.946L154.679 109.957ZM203.472 64.5279C204.712 64.4497 205.796 64.4386 206.846 64.2935C210.778 63.7465 214.576 62.742 217.782 60.264C220.798 57.9423 220.876 54.2141 217.994 51.7362C217.022 50.9102 215.883 50.2181 214.71 49.7047C210.175 47.729 205.371 47.1821 200.534 47.8406C198.021 48.1866 195.53 49.0908 193.162 50.073C190.626 51.1223 189.42 53.2877 189.453 56.067C189.498 58.891 190.749 61.0453 193.24 62.3959C196.479 64.1595 200.02 64.5056 203.461 64.5167L203.472 64.5279Z" fill="#DBD4FB"/>
<path d="M51.6082 7.44501C51.2061 7.91381 50.8151 8.39378 50.3906 8.8291C45.2968 14.1088 43.4313 20.8953 41.8339 27.7265C39.6445 37.1026 39.4658 46.635 40.3483 56.212C41.1525 65.0077 43.1409 73.4462 47.1623 81.3489C48.2682 83.5144 49.5193 85.6129 50.8821 88.0462C45.3192 86.3495 39.9573 84.7087 34.6177 83.0791C34.6177 82.108 34.6177 81.3936 34.6177 80.6904C34.6177 80.6346 34.5172 80.5676 34.4502 80.5118C31.0432 84.8427 25.7371 86.3049 20.1854 84.4408C17.3927 83.5032 14.8905 82.0187 12.7793 79.9872C6.8365 74.2722 2.45764 67.5638 0.681514 59.4378C-1.01641 51.6914 0.42459 44.5365 5.80881 38.4643C8.60146 35.3167 12.1872 33.4414 16.3874 32.9503C20.2971 32.4927 23.2573 34.3902 25.8265 37.0803C26.0834 37.3593 26.3068 37.6718 26.5414 37.9621C26.642 37.9062 26.7425 37.8504 26.843 37.8058C26.5638 37.1361 26.3292 36.444 25.9941 35.7966C23.436 30.8853 22.5759 25.8512 25.1339 20.672C26.3068 18.3168 28.1611 16.5198 30.3394 15.024C33.7241 12.7023 37.4886 11.1731 41.3424 9.8895C44.6713 8.78445 48.1006 8.00311 51.4853 7.07666C51.53 7.18828 51.5747 7.2999 51.6194 7.42268L51.6082 7.44501ZM18.6215 48.4321C14.332 48.5102 10.6904 49.4366 7.45089 51.6021C3.5747 54.2028 3.39597 58.9244 7.18279 61.6368C8.84721 62.8311 10.8356 63.7464 12.8128 64.2822C17.5714 65.5547 22.3301 65.5993 26.843 63.1436C29.658 61.6144 30.6745 59.1811 30.507 56.1339C30.3394 53.2541 28.8872 51.1891 26.2733 49.9948C23.7153 48.8227 21.012 48.3539 18.6215 48.4321Z" fill="#DBD4FB"/>
<path d="M57.819 46.4341C59.8855 43.4315 60.9691 40.0606 61.5499 36.5334C61.8739 34.5577 61.751 32.5262 62.075 30.5505C62.7117 26.5991 65.2586 24.5342 69.28 24.7128C71.5476 24.8132 73.8041 25.2932 76.0717 25.4048C77.5686 25.4829 79.0989 25.349 80.5734 25.0699C83.232 24.5788 85.8683 23.8868 88.5157 23.3063C90.3924 22.9045 90.7163 23.1501 90.5488 25.0476C90.169 29.3897 90.3812 33.7987 89.0854 38.0402C87.4992 43.2641 83.3438 45.9541 77.8813 45.53C74.4296 45.2621 71.3689 44.0231 68.498 42.2818C65.2586 40.3061 63.6053 40.8977 61.9186 44.3356C60.9467 46.3113 60.5558 48.6665 60.31 50.8878C59.8073 55.5312 60.3659 60.1634 61.4047 64.6952C62.3207 68.7247 63.4489 72.7319 64.7671 76.6609C66.4091 81.5276 69.1906 85.7915 72.3854 89.7987C72.9104 90.4572 73.4689 91.1158 73.9269 91.819C74.1168 92.1204 74.2397 92.645 74.0945 92.9129C73.9828 93.1361 73.4019 93.2478 73.0668 93.1919C68.2188 92.3883 63.3819 91.5623 58.545 90.7251C58.1988 90.6693 57.8636 90.4461 57.5174 90.4349C54.1774 90.4349 52.8145 88.0574 51.3735 85.5794C49.0277 81.5388 47.4303 77.2079 45.7882 72.8658C43.6993 67.363 42.4036 61.7038 41.8897 55.8549C41.4429 50.765 41.6551 45.6974 42.3589 40.641C42.7387 37.9509 43.0403 35.2497 43.3531 32.5485C43.4871 31.3988 43.9451 30.584 45.1068 30.1152C47.9107 28.9767 50.6474 27.693 53.4513 26.5768C54.2891 26.242 55.2832 26.175 56.2104 26.1638C59.3158 26.1192 61.36 27.9721 61.2818 31.0416C61.226 33.2406 60.902 35.473 60.3882 37.6161C59.6844 40.5852 58.6903 43.4873 57.819 46.4118V46.4341Z" fill="#DBD4FB"/>
<path d="M116.621 95.8708C108.768 96.8977 101.116 96.1833 93.2521 95.7927C93.8999 93.0914 94.5478 90.7474 95.017 88.3587C96.9607 78.2906 97.765 68.1331 97.5304 57.8863C97.3293 49.459 97.0389 41.0205 95.017 32.7829C94.4026 30.2937 93.3414 27.9162 92.3584 25.5387C92.0121 24.7127 92.1908 24.3555 92.9058 24.1323C98.6586 22.3575 104.49 21.3864 110.421 23.1277C114.956 24.4671 117.258 27.9051 116.978 32.928C116.856 35.0934 116.353 37.2477 116.051 39.402C115.426 43.7663 114.722 48.1195 114.242 52.5062C113.717 57.2836 113.203 62.0833 113.08 66.8829C112.856 75.4108 113.203 83.9162 115.493 92.2208C115.805 93.3817 116.219 94.509 116.654 95.8596L116.621 95.8708Z" fill="#DBD4FB"/>
<path d="M216.642 79.8421C216.921 79.2059 217.1 78.5138 217.48 77.9557C220.194 73.9486 222.462 69.7628 223.791 65.0747C225.757 58.1766 225.009 51.5128 222.328 44.9942C221.535 43.0632 220.641 41.1433 219.569 39.3574C218.508 37.5826 217.156 35.9641 215.894 34.234C216.073 34.1782 216.341 34.0442 216.62 34.0219C221.881 33.6647 226.852 34.6805 231.399 37.3817C236.649 40.5071 238.916 45.5635 239.665 51.2561C240.726 59.2705 239.14 66.883 235.085 73.9262C234.817 74.3839 234.348 74.8862 233.878 75.0313C228.26 76.7726 222.63 78.4469 217 80.1323C216.877 80.043 216.754 79.9538 216.642 79.8533V79.8421Z" fill="#DBD4FB"/>
<path d="M106.188 14.9571C102.959 14.8678 99.9432 14.0976 97.5863 11.6531C94.7936 8.76212 95.0394 4.92237 98.1336 2.39975C102.323 -1.01584 109.974 -0.736787 113.918 2.96902C117.179 6.03858 116.878 10.3583 113.203 12.9256C111.114 14.3878 108.757 14.9571 106.199 14.9571H106.188Z" fill="#DBD4FB"/>
<path d="M229.042 33.7317C223.11 32.7494 218.385 30.3607 215.045 25.628C214.363 24.6681 213.57 23.4626 214.453 22.3129C215.391 21.1074 216.787 21.6208 217.927 22.0673C222.764 23.9425 226.785 27.0121 230.203 30.863C230.639 31.3541 231.063 32.4257 230.818 32.8387C230.505 33.3745 229.522 33.5196 229.03 33.7317H229.042Z" fill="#DBD4FB"/>
</g>
<defs>
<clipPath id="clip0_207_10992">
<rect width="240" height="114.958" fill="white"/>
</clipPath>
</defs>
</svg>
