<svg width="96" height="40" viewBox="0 0 96 40" fill="none" xmlns="http://www.w3.org/2000/svg">
<path d="M29.3796 0.0210318C36.3407 0.0210318 39.6845 3.6593 39.6845 9.19032C39.6845 14.1115 37.0347 17.2871 32.8707 18.8013L9.92639 27.1293C8.55941 27.6551 7.80231 28.5594 7.80231 29.8633C7.80231 31.3775 8.79075 32.2818 10.8307 32.2818C22.061 32.2818 33.2913 32.2818 44.5426 32.2608C44.5426 34.8475 44.5426 37.4132 44.5426 40C33.1651 40 21.7666 40 10.3891 40C3.49106 40 0.0841223 36.3617 0.0841223 30.8307C0.0841223 26.3722 2.27129 22.7971 6.898 21.1356L29.9054 12.8917C31.5668 12.2818 32.0294 11.1462 32.0294 10.0946C32.0294 8.58044 31.041 7.73922 28.9169 7.73922C19.306 7.73922 9.67403 7.73922 0.0630917 7.73922C0.0420612 5.15247 0.0210305 2.58675 0 0C9.80021 0.0210305 19.5794 0.0210318 29.3796 0.0210318Z" fill="black"/>
<path d="M52.5551 0.0209961V40H44.5214V0.0209961H52.5551Z" fill="black"/>
<path d="M62.9234 0.0209961H71.0201H82.0822V7.73919H71.0201V26.6666C71.0201 31.1251 72.6185 32.6393 76.4039 32.6393C80.1263 32.6183 83.8277 32.5972 87.5501 32.5762C87.5501 35.0368 87.5501 37.5184 87.5501 39.9789C83.2809 39.9789 79.0117 39.9789 74.7425 39.9789C66.4986 39.9789 62.9234 36.6561 62.9234 26.204V7.73919C59.4744 7.73919 56.0254 7.71815 52.5554 7.71815C52.5554 5.15243 52.5554 2.58672 52.5554 0.0209961C56.0044 0.0209961 59.4744 0.0209961 62.9234 0.0209961Z" fill="black"/>
<path d="M95.5626 0.0209961V40H87.5289V0.0209961H95.5626Z" fill="black"/>
</svg>
